<mxfile host="app.diagrams.net" modified="2024-07-10T06:45:37.447Z" agent="Mozilla/5.0 (Macintosh; Intel Mac OS X 10_15_7) AppleWebKit/537.36 (KHTML, like Gecko) Chrome/124.0.0.0 Safari/537.36" version="24.6.4" etag="RG4Arq3s1hSAFX3mdLnC" type="github">
  <diagram name="第 1 页" id="3FxIHj7swy2rU0zEM1zJ">
    <mxGraphModel>
      <root>
        <mxCell id="0" />
        <mxCell id="1" parent="0" />
      </root>
    </mxGraphModel>
  </diagram>
</mxfile>
